<svg width="98" height="98" viewBox="0 0 98 98" fill="none" xmlns="http://www.w3.org/2000/svg">
<g clip-path="url(#clip0_82_62)">
<g clip-path="url(#clip1_82_62)">
<path fill-rule="evenodd" clip-rule="evenodd" d="M52.1198 63.1198C51.3541 63.8854 50.3157 64.3154 49.2329 64.3154C48.1502 64.3154 47.1117 63.8854 46.346 63.1198L23.2466 40.0204C22.8566 39.6438 22.5455 39.1932 22.3315 38.695C22.1175 38.1968 22.0049 37.661 22.0002 37.1188C21.9954 36.5766 22.0988 36.0389 22.3041 35.5371C22.5094 35.0353 22.8126 34.5794 23.196 34.196C23.5794 33.8126 24.0353 33.5094 24.5371 33.3041C25.0389 33.0988 25.5766 32.9954 26.1188 33.0002C26.661 33.0049 27.1968 33.1175 27.695 33.3315C28.1932 33.5455 28.6438 33.8566 29.0204 34.2466L49.2329 54.4591L69.4454 34.2466C70.2156 33.5028 71.247 33.0912 72.3176 33.1005C73.3883 33.1098 74.4124 33.5392 75.1695 34.2963C75.9266 35.0534 76.356 36.0776 76.3654 37.1482C76.3747 38.2188 75.9631 39.2503 75.2193 40.0204L52.1198 63.1198Z" fill="black"/>
</g>
</g>
<defs>
<clipPath id="clip0_82_62">
<rect width="98" height="98" fill="white"/>
</clipPath>
<clipPath id="clip1_82_62">
<rect width="98" height="98" fill="white"/>
</clipPath>
</defs>
</svg>
