<svg width="33" height="33" viewBox="0 0 33 33" fill="none" xmlns="http://www.w3.org/2000/svg">
<g clip-path="url(#clip0_75_529)">
<path d="M5.75 27.5C4.99375 27.5 4.34658 27.231 3.8085 26.6929C3.27042 26.1548 3.00092 25.5072 3 24.75V8.25C3 7.49375 3.2695 6.84658 3.8085 6.3085C4.3475 5.77042 4.99467 5.50092 5.75 5.5H27.75C28.5063 5.5 29.1539 5.7695 29.6929 6.3085C30.2319 6.8475 30.5009 7.49467 30.5 8.25V24.75C30.5 25.5063 30.231 26.1539 29.6929 26.6929C29.1548 27.2319 28.5072 27.5009 27.75 27.5H5.75ZM16.75 17.875L5.75 11V24.75H27.75V11L16.75 17.875ZM16.75 15.125L27.75 8.25H5.75L16.75 15.125ZM5.75 11V8.25V24.75V11Z" fill="black"/>
</g>
<defs>
<clipPath id="clip0_75_529">
<rect width="33" height="33" fill="white"/>
</clipPath>
</defs>
</svg>
